PathFileType	4	(X/Y/Z)	l_comf_01_markers.trc
DataRate	CameraRate	NumFrames	NumMarkers	Units	OrigDataRate	OrigDataStartFrame	OrigNumFrames
100.000000	100.000000	4	96	mm	100.000000	851	973
Frame#	Time	Torso1			Torso2			Torso3			RFemur1			RFemur2			RFemur3			RFemur4			LFemur1			LFemur2			LFemur4			RTibia1			RTibia2			RTibia3			RTibia4			LTibia2			LTibia3			LTibia4			LFoot1			LFoot2			LFoot3			RFoot2			RFoot3			LFemur3			LTibia1			RFoot1			Pelvis3			Pelvis4			Torso4			Pelvis1			Pelvis2			*30			*31			*32			*33			*34			*35			*36			*37			*38			*39			*40			*41			*42			*43			*44			*45			*46			*47			*48			*49			*50			*51			*52			*53			*54			*55			*56			*57			*58			*59			*60			*61			*62			*63			*64			Pelvis_RFemur_score			Pelvis_LFemur_score			RFemur_RTibia_score			RFemur_RTibia_sara			LFemur_LTibia_score			LFemur_LTibia_sara			RKnee			LKnee			RTibia_RFoot_score			LTibia_LFoot_score			USERMO0			USERMO1			USERMO2			USERMO3			USERMO4			USERMO5			USERMO6			USERMO7			USERMO8			USERMO9			USERMO10			USERMO11			USERMO12			USERMO13			USERMO14			USERMO15			USERMO16			USERMO17			USERMO18			USERMO19			USERMO20			
		X1	Y1	Z1	X2	Y2	Z2	X3	Y3	Z3	X4	Y4	Z4	X5	Y5	Z5	X6	Y6	Z6	X7	Y7	Z7	X8	Y8	Z8	X9	Y9	Z9	X10	Y10	Z10	X11	Y11	Z11	X12	Y12	Z12	X13	Y13	Z13	X14	Y14	Z14	X15	Y15	Z15	X16	Y16	Z16	X17	Y17	Z17	X18	Y18	Z18	X19	Y19	Z19	X20	Y20	Z20	X21	Y21	Z21	X22	Y22	Z22	X23	Y23	Z23	X24	Y24	Z24	X25	Y25	Z25	X26	Y26	Z26	X27	Y27	Z27	X28	Y28	Z28	X29	Y29	Z29	X30	Y30	Z30	X31	Y31	Z31	X32	Y32	Z32	X33	Y33	Z33	X34	Y34	Z34	X35	Y35	Z35	X36	Y36	Z36	X37	Y37	Z37	X38	Y38	Z38	X39	Y39	Z39	X40	Y40	Z40	X41	Y41	Z41	X42	Y42	Z42	X43	Y43	Z43	X44	Y44	Z44	X45	Y45	Z45	X46	Y46	Z46	X47	Y47	Z47	X48	Y48	Z48	X49	Y49	Z49	X50	Y50	Z50	X51	Y51	Z51	X52	Y52	Z52	X53	Y53	Z53	X54	Y54	Z54	X55	Y55	Z55	X56	Y56	Z56	X57	Y57	Z57	X58	Y58	Z58	X59	Y59	Z59	X60	Y60	Z60	X61	Y61	Z61	X62	Y62	Z62	X63	Y63	Z63	X64	Y64	Z64	X65	Y65	Z65	X66	Y66	Z66	X67	Y67	Z67	X68	Y68	Z68	X69	Y69	Z69	X70	Y70	Z70	X71	Y71	Z71	X72	Y72	Z72	X73	Y73	Z73	X74	Y74	Z74	X75	Y75	Z75	X76	Y76	Z76	X77	Y77	Z77	X78	Y78	Z78	X79	Y79	Z79	X80	Y80	Z80	X81	Y81	Z81	X82	Y82	Z82	X83	Y83	Z83	X84	Y84	Z84	X85	Y85	Z85	X86	Y86	Z86	X87	Y87	Z87	X88	Y88	Z88	X89	Y89	Z89	X90	Y90	Z90	X91	Y91	Z91	X92	Y92	Z92	X93	Y93	Z93	X94	Y94	Z94	X95	Y95	Z95	X96	Y96	Z96	

852	8.51	352.5890197753906	2478.460205078125	1431.337158203125	521.3448486328125	2427.49951171875	1459.388061523438	175.1110382080078	2414.745849609375	1455.768798828125	538.2501831054688	2434.0380859375	644.8509521484375	525.914794921875	2443.034912109375	543.5921020507812	538.3594360351562	2465.584228515625	593.4567260742188	542.6602783203125	2502.679443359375	597.198486328125	220.9594421386719	2518.5361328125	671.2376708984375	nan	nan	nan	223.3889923095703	2547.06884765625	644.155517578125	525.0314331054688	2379.5849609375	396.4256591796875	527.7593994140625	2423.170166015625	435.8777770996094	nan	nan	nan	511.2484436035156	2348.101806640625	419.8951416015625	240.4164428710938	2587.284423828125	363.8988037109375	257.9587707519531	2603.87646484375	301.6045532226562	252.584228515625	2599.957275390625	411.5897216796875	nan	nan	nan	nan	nan	nan	nan	nan	nan	nan	nan	nan	482.857421875	2309.9892578125	41.01277542114258	240.0661773681641	2551.47802734375	572.1769409179688	240.416259765625	2539.74072265625	376.9659729003906	406.5970153808594	2165.625244140625	143.8850860595703	408.0547485351562	2326.501708984375	912.763427734375	338.4100036621094	2328.213134765625	911.0880126953125	354.8951110839844	2340.78759765625	1493.765869140625	327.5087890625	2345.474853515625	1024.830932617188	407.4247131347656	2345.24267578125	1029.98291015625	2072.71142578125	1753.356323242188	494.1530456542969	nan	nan	nan	1514.832275390625	1874.947021484375	632.555908203125	nan	nan	nan	nan	nan	nan	nan	nan	nan	1628.139038085938	1821.305297851562	657.9357299804688	1635.00146484375	1800.846313476562	659.0880737304688	1463.755981445312	1823.996704101562	577.2554931640625	nan	nan	nan	1445.576416015625	1364.316162109375	518.2381591796875	nan	nan	nan	nan	nan	nan	nan	nan	nan	nan	nan	nan	nan	nan	nan	nan	nan	nan	nan	nan	nan	nan	nan	nan	nan	nan	nan	nan	nan	nan	nan	nan	nan	nan	nan	nan	nan	nan	nan	nan	nan	nan	nan	nan	nan	nan	nan	nan	nan	nan	nan	nan	nan	nan	nan	nan	nan	nan	nan	nan	nan	nan	nan	nan	nan	nan	nan	nan	nan	nan	nan	nan	497.8131408691406	2458.81396484375	913.3560180664062	nan	nan	nan	nan	nan	nan	nan	nan	nan	nan	nan	nan	nan	nan	nan	nan	nan	nan	nan	nan	nan	nan	nan	nan	nan	nan	nan	nan	nan	nan	nan	nan	nan	nan	nan	nan	nan	nan	nan	nan	nan	nan	nan	nan	nan	2.638819694519043	1.964887261390686	-2.100841045379639	0.2465508878231049	2.576888084411621	0.3473235964775085	0.1000000014901161	0.1000000014901161	0.1000000014901161	-1.726667284965515	-0.04104757681488991	-0.05944585800170898	0.3810297846794128	2.339122772216797	0.9891693592071533	0.1000000014901161	0.1000000014901161	0.1000000014901161	0.2232395261526108	1.693362474441528	-0.1066320464015007	0.5340954065322876	2.447649002075195	0.59392911195755	0.1000000014901161	0.1000000014901161	0.1000000014901161	nan	nan	nan	nan	nan	nan	nan	nan	nan	nan	nan	nan	nan	nan	nan	nan	nan	nan	
853	8.52	351.7951049804688	2485.169189453125	1432.357666015625	520.26513671875	2433.80712890625	1460.340576171875	174.1426544189453	2421.898193359375	1456.557495117188	538.5223388671875	2443.04296875	645.1640014648438	527.7935180664062	2453.286865234375	543.9459228515625	539.7669067382812	2475.15576171875	594.0928344726562	544.59375	2512.20654296875	598.3900146484375	220.8789367675781	2519.781494140625	671.0927734375	nan	nan	nan	223.4073944091797	2547.633056640625	643.3843383789062	527.4404907226562	2389.9052734375	398.6734924316406	530.3964233398438	2434.035888671875	437.4055480957031	nan	nan	nan	513.5919189453125	2358.472900390625	422.7930603027344	239.8492584228516	2588.02587890625	363.2755126953125	257.7002258300781	2604.604248046875	301.1768798828125	251.7903900146484	2600.78955078125	411.0918884277344	nan	nan	nan	nan	nan	nan	nan	nan	nan	nan	nan	nan	nan	nan	nan	239.5379028320312	2550.3173828125	571.3427124023438	240.4318389892578	2540.2958984375	376.7087097167969	408.3324890136719	2172.467529296875	151.13525390625	406.4242248535156	2332.5830078125	913.8878173828125	336.6283874511719	2334.384521484375	912.2224731445312	353.6579895019531	2347.484619140625	1494.598022460938	326.0187683105469	2351.421630859375	1026.153198242188	406.0448303222656	2350.86669921875	1031.370971679688	2072.6318359375	1753.425170898438	494.2841491699219	nan	nan	nan	1514.688598632812	1874.876953125	632.35302734375	nan	nan	nan	nan	nan	nan	nan	nan	nan	1628.11669921875	1821.354125976562	657.9669799804688	nan	nan	nan	1463.746704101562	1824.01611328125	577.263427734375	nan	nan	nan	1445.724609375	1364.139526367188	518.1939697265625	nan	nan	nan	nan	nan	nan	nan	nan	nan	nan	nan	nan	nan	nan	nan	nan	nan	nan	nan	nan	nan	nan	nan	nan	nan	nan	nan	nan	nan	nan	nan	nan	nan	nan	nan	nan	nan	nan	nan	nan	nan	nan	nan	nan	nan	nan	nan	nan	nan	nan	nan	nan	nan	nan	nan	nan	nan	nan	nan	nan	nan	nan	nan	nan	nan	nan	nan	nan	nan	nan	nan	nan	495.5608520507812	2465.095947265625	914.0560302734375	nan	nan	nan	nan	nan	nan	nan	nan	nan	nan	nan	nan	nan	nan	nan	nan	nan	nan	nan	nan	nan	nan	nan	nan	nan	nan	nan	nan	nan	nan	nan	nan	nan	nan	nan	nan	nan	nan	nan	nan	nan	nan	nan	nan	nan	2.623379945755005	1.97185492515564	-2.095015525817871	0.2462984323501587	2.57755184173584	0.3468790352344513	0.1000000014901161	0.1000000014901161	0.1000000014901161	-1.723480463027954	-0.03747264668345451	-0.06055095046758652	0.3794918358325958	2.344982862472534	0.9904071092605591	0.1000000014901161	0.1000000014901161	0.1000000014901161	0.2432994246482849	1.67859148979187	-0.1059812307357788	0.5352926850318909	2.457279682159424	0.5943723320960999	0.1000000014901161	0.1000000014901161	0.1000000014901161	nan	nan	nan	nan	nan	nan	nan	nan	nan	nan	nan	nan	nan	nan	nan	nan	nan	nan	
854	8.529999999999999	351.0542602539062	2491.8466796875	1433.107055664062	519.37646484375	2440.171630859375	1461.088623046875	173.2391204833984	2429.1826171875	1457.291137695312	539.151123046875	2451.82177734375	645.5745849609375	529.6693115234375	2463.181396484375	544.345458984375	541.3040771484375	2484.44775390625	594.8544311523438	546.4365844726562	2521.27490234375	599.4564819335938	221.1954498291016	2520.1630859375	670.3306884765625	nan	nan	nan	223.9246978759766	2547.456787109375	642.0787353515625	529.7830200195312	2400.427490234375	400.3111877441406	532.7864990234375	2445.190185546875	438.8217163085938	nan	nan	nan	515.9907836914062	2369.365478515625	425.0381774902344	nan	nan	nan	257.1927795410156	2605.366455078125	300.65380859375	251.1477355957031	2602.388427734375	410.7378234863281	nan	nan	nan	nan	nan	nan	nan	nan	nan	470.9080505371094	2358.181640625	25.73063468933105	nan	nan	nan	239.2286376953125	2548.416748046875	569.8721923828125	239.97802734375	2541.669677734375	376.6661071777344	410.4283752441406	2179.610107421875	157.6708984375	404.6978454589844	2338.1435546875	914.5228271484375	335.1072998046875	2340.3642578125	912.9028930664062	352.6264953613281	2354.1123046875	1495.239013671875	324.5310974121094	2357.87890625	1026.77783203125	404.1539306640625	2357.33544921875	1031.739013671875	2072.747802734375	1753.331665039062	494.0211181640625	-3557.19287109375	-673.609130859375	994.71337890625	1514.869873046875	1874.945678710938	632.4765014648438	-3552.124267578125	-669.3463134765625	971.731201171875	1634.999633789062	1800.809204101562	659.0391845703125	nan	nan	nan	1628.135620117188	1821.320068359375	657.9158935546875	nan	nan	nan	1463.660278320312	1823.993774414062	577.3070068359375	nan	nan	nan	1445.618408203125	1364.12158203125	518.1866455078125	nan	nan	nan	nan	nan	nan	nan	nan	nan	nan	nan	nan	nan	nan	nan	nan	nan	nan	nan	nan	nan	nan	nan	nan	nan	nan	nan	nan	nan	nan	nan	nan	nan	nan	nan	nan	nan	nan	nan	nan	nan	nan	nan	nan	nan	nan	nan	nan	nan	nan	nan	nan	nan	nan	nan	nan	nan	nan	nan	nan	nan	nan	nan	nan	nan	nan	nan	nan	nan	nan	nan	nan	493.8384399414062	2471.237060546875	913.9887084960938	nan	nan	nan	nan	nan	nan	nan	nan	nan	nan	nan	nan	nan	nan	nan	nan	nan	nan	nan	nan	nan	nan	nan	nan	nan	nan	nan	nan	nan	nan	nan	nan	nan	nan	nan	nan	nan	nan	nan	nan	nan	nan	nan	nan	nan	nan	nan	nan	nan	nan	nan	nan	nan	nan	-1.729495525360107	-0.03558308258652687	-0.06243958324193954	0.3778403401374817	2.35118842124939	0.9909690022468567	0.1000000014901161	0.1000000014901161	0.1000000014901161	0.2593220174312592	1.667237162590027	-0.1042733043432236	0.5366348028182983	2.46657395362854	0.5948755145072937	0.1000000014901161	0.1000000014901161	0.1000000014901161	nan	nan	nan	nan	nan	nan	nan	nan	nan	nan	nan	nan	nan	nan	nan	nan	nan	nan	
855	8.540000000000001	350.4056396484375	2498.44970703125	1433.703491210938	518.4395751953125	2446.363525390625	1461.399780273438	172.3851776123047	2436.33154296875	1457.895874023438	539.3231811523438	2460.052734375	645.8920288085938	531.3448486328125	2472.559814453125	544.6702880859375	542.43603515625	2493.1435546875	595.324462890625	547.9022827148438	2529.794921875	600.3137817382812	220.8867034912109	2520.14013671875	669.9793701171875	nan	nan	nan	223.7510986328125	2547.174560546875	641.3379516601562	532.1771240234375	2411.360595703125	401.8529357910156	534.8090209960938	2456.176025390625	439.7201538085938	nan	nan	nan	518.3436279296875	2380.10302734375	426.7458801269531	nan	nan	nan	256.5787963867188	2606.017333984375	300.3092956542969	nan	nan	nan	nan	nan	nan	nan	nan	nan	nan	nan	nan	471.6602478027344	2363.7421875	27.23820114135742	nan	nan	nan	238.7798004150391	2547.129638671875	568.9959106445312	239.2791900634766	2543.24951171875	376.8735046386719	412.1003112792969	2187.437255859375	163.0047302246094	403.1603698730469	2343.694091796875	915.1268920898438	333.2895812988281	2345.9384765625	913.5594482421875	351.5050964355469	2360.7099609375	1495.896240234375	323.4899291992188	2362.560546875	1027.7236328125	402.9495849609375	2362.7294921875	1032.229858398438	nan	nan	nan	nan	nan	nan	1514.694458007812	1874.885864257812	632.4181518554688	nan	nan	nan	1635.062133789062	1800.76171875	659.0077514648438	nan	nan	nan	1628.148071289062	1821.28271484375	657.9172973632812	nan	nan	nan	1463.662475585938	1824.02587890625	577.339111328125	nan	nan	nan	1445.6123046875	1364.239501953125	518.2373046875	nan	nan	nan	nan	nan	nan	nan	nan	nan	nan	nan	nan	nan	nan	nan	nan	nan	nan	nan	nan	nan	nan	nan	nan	nan	nan	nan	nan	nan	nan	nan	nan	nan	nan	nan	nan	nan	nan	nan	nan	nan	nan	nan	nan	nan	nan	nan	nan	nan	nan	nan	nan	nan	nan	nan	nan	nan	nan	nan	nan	nan	nan	nan	nan	nan	nan	nan	nan	nan	nan	nan	nan	491.1197204589844	2477.55126953125	914.1129150390625	nan	nan	nan	nan	nan	nan	nan	nan	nan	nan	nan	nan	nan	nan	nan	nan	nan	nan	nan	nan	nan	nan	nan	nan	nan	nan	nan	nan	nan	nan	nan	nan	nan	nan	nan	nan	nan	nan	nan	nan	nan	nan	nan	nan	nan	nan	nan	nan	nan	nan	nan	nan	nan	nan	-1.725248456001282	-0.03604474291205406	-0.05457558110356331	0.3765228092670441	2.356458902359009	0.9916017651557922	0.1000000014901161	0.1000000014901161	0.1000000014901161	0.2746593654155731	1.653623104095459	-0.1025652438402176	0.5376251935958862	2.475317239761353	0.5952130556106567	0.1000000014901161	0.1000000014901161	0.1000000014901161	nan	nan	nan	nan	nan	nan	nan	nan	nan	nan	nan	nan	nan	nan	nan	nan	nan	nan	
